<svg width="32" height="32" viewBox="0 0 32 32" fill="none" xmlns="http://www.w3.org/2000/svg">
<path fill-rule="evenodd" clip-rule="evenodd" d="M16 23.742L13.4118 25.6593L12.129 22.7048L8.92893 23.0711L9.29519 19.871L6.34074 18.5882L8.25795 16L6.34074 13.4118L9.29519 12.129L8.92893 8.92893L12.129 9.29519L13.4118 6.34074L16 8.25795L18.5882 6.34074L19.871 9.29519L23.0711 8.92893L22.7048 12.129L25.6593 13.4118L23.742 16L25.6593 18.5882L22.7048 19.871L23.0711 23.0711L19.871 22.7048L18.5882 25.6593L16 23.742Z" fill="#499B1F"/>
<path d="M23.8788 16.7323C24.0224 16.982 24.166 17.2338 24.3117 17.4836C24.4053 17.648 24.5011 17.8103 24.5947 17.9747C24.6488 18.0705 24.7092 18.1641 24.7529 18.2661C24.7321 18.2162 24.7113 18.1662 24.6904 18.1163C24.7175 18.187 24.7362 18.2578 24.7466 18.3327C24.7383 18.2765 24.7321 18.2224 24.7237 18.1662C24.7321 18.239 24.7321 18.3119 24.7217 18.3847C24.73 18.3285 24.7362 18.2744 24.7446 18.2182C24.7341 18.2911 24.7154 18.3598 24.6884 18.4284C24.7092 18.3785 24.73 18.3285 24.7508 18.2786C24.7446 18.2952 24.678 18.4492 24.6592 18.4472C24.653 18.4451 24.7529 18.3348 24.7154 18.3764C24.7029 18.3889 24.6904 18.4055 24.678 18.418C24.6551 18.4409 24.5552 18.5242 24.6467 18.4534C24.7362 18.3847 24.6384 18.4555 24.6093 18.4721C24.5989 18.4784 24.5885 18.4846 24.5781 18.4888C24.4678 18.5533 24.3575 18.6157 24.2492 18.6782C23.9391 18.8572 23.627 19.0361 23.3169 19.2151C23.1795 19.2942 23.0526 19.3733 22.9298 19.4794C22.6176 19.7479 22.449 20.1662 22.4428 20.5741C22.4386 20.8363 22.4428 21.1006 22.4428 21.3629C22.4428 21.5668 22.4428 21.7729 22.4428 21.9768C22.4428 22.0934 22.449 22.212 22.4345 22.3265C22.4428 22.2703 22.449 22.2162 22.4574 22.16C22.4469 22.2328 22.4282 22.3036 22.4012 22.3722C22.422 22.3223 22.4428 22.2723 22.4636 22.2224C22.4428 22.2723 22.4157 22.3181 22.3887 22.366C22.3408 22.4472 22.4802 22.2661 22.4303 22.314C22.4116 22.3327 22.3949 22.3535 22.3762 22.3722C22.3595 22.3889 22.3429 22.4014 22.3262 22.418C22.2513 22.4888 22.4574 22.3348 22.3679 22.3847C22.32 22.4118 22.2763 22.4388 22.2243 22.4596C22.2742 22.4388 22.3242 22.418 22.3741 22.3972C22.3054 22.4243 22.2347 22.443 22.1618 22.4534C22.218 22.4451 22.2721 22.4388 22.3283 22.4305C22.064 22.4617 21.7851 22.4388 21.5187 22.4388C21.2107 22.4388 20.9048 22.4368 20.5968 22.4388C20.0224 22.4409 19.5437 22.7489 19.2607 23.2401C19.0921 23.5335 18.9235 23.827 18.7529 24.1204C18.6696 24.264 18.5885 24.4076 18.5052 24.5491C18.4865 24.5804 18.4698 24.6137 18.449 24.6449C18.3804 24.7531 18.5468 24.5367 18.4594 24.6324C18.4345 24.6594 18.4053 24.6844 18.3783 24.7094C18.3387 24.7468 18.449 24.647 18.449 24.6532C18.449 24.6574 18.3991 24.6865 18.3908 24.6907C18.3554 24.7115 18.3179 24.7302 18.2805 24.7448C18.3304 24.724 18.3804 24.7031 18.4303 24.6823C18.3616 24.7094 18.2929 24.7281 18.2201 24.7385C18.2763 24.7302 18.3304 24.724 18.3866 24.7156C18.3138 24.724 18.2409 24.724 18.1681 24.7177C18.2243 24.726 18.2784 24.7323 18.3346 24.7406C18.2596 24.7302 18.1889 24.7115 18.1181 24.6844C18.1681 24.7052 18.218 24.726 18.268 24.7468C18.0432 24.6511 17.8309 24.5034 17.6186 24.3826C17.346 24.2266 17.0734 24.0684 16.8007 23.9123C16.6051 23.7999 16.4032 23.7229 16.1785 23.6917C15.8476 23.648 15.5229 23.7208 15.2316 23.8852C14.9839 24.0268 14.7383 24.1683 14.4927 24.3098C14.2388 24.4555 13.987 24.6303 13.7185 24.7468C13.7685 24.726 13.8184 24.7052 13.8684 24.6844C13.7976 24.7115 13.7269 24.7302 13.6519 24.7406C13.7081 24.7323 13.7622 24.726 13.8184 24.7177C13.7456 24.726 13.6728 24.726 13.5999 24.7156C13.6561 24.724 13.7102 24.7302 13.7664 24.7385C13.6936 24.7281 13.6249 24.7094 13.5562 24.6823C13.6062 24.7031 13.6561 24.724 13.7061 24.7448C13.6894 24.7385 13.5354 24.6719 13.5375 24.6532C13.5396 24.647 13.6499 24.7468 13.6082 24.7094C13.5937 24.6969 13.5791 24.6844 13.5666 24.6719C13.5437 24.649 13.4605 24.5491 13.5312 24.6407C13.5999 24.7302 13.5292 24.6324 13.5125 24.6032C13.5063 24.5928 13.5 24.5824 13.4959 24.572C13.4313 24.4617 13.3689 24.3514 13.3065 24.2432C13.1275 23.9331 12.9485 23.623 12.7695 23.3129C12.6904 23.1756 12.6114 23.0486 12.5052 22.9258C12.2368 22.6137 11.8184 22.4451 11.4105 22.4388C11.1483 22.4347 10.884 22.4388 10.6218 22.4388C10.4178 22.4388 10.2118 22.4388 10.0078 22.4388C9.89128 22.4388 9.77266 22.4451 9.65819 22.4305C9.71438 22.4388 9.76849 22.4451 9.82469 22.4534C9.75184 22.443 9.68109 22.4243 9.61241 22.3972C9.66235 22.418 9.7123 22.4388 9.76225 22.4596C9.7123 22.4388 9.66652 22.4118 9.61865 22.3847C9.53748 22.3369 9.71855 22.4763 9.67068 22.4264C9.65195 22.4076 9.63114 22.391 9.61241 22.3722C9.59576 22.3556 9.58327 22.3389 9.56662 22.3223C9.49586 22.2474 9.64987 22.4534 9.59992 22.3639C9.57286 22.316 9.54581 22.2723 9.525 22.2203C9.54581 22.2703 9.56662 22.3202 9.58743 22.3702C9.56038 22.3015 9.54165 22.2307 9.53124 22.1579C9.53957 22.2141 9.54581 22.2682 9.55413 22.3244C9.52292 22.0601 9.54581 21.7812 9.54581 21.5148C9.54581 21.2068 9.54789 20.9009 9.54581 20.5928C9.54373 20.0184 9.23572 19.5398 8.74456 19.2567C8.45112 19.0882 8.15767 18.9196 7.86423 18.7489C7.72063 18.6657 7.57703 18.5845 7.43551 18.5013C7.40429 18.4825 7.37099 18.4659 7.33977 18.4451C7.23155 18.3764 7.448 18.5429 7.35226 18.4555C7.32521 18.4305 7.30023 18.4014 7.27526 18.3743C7.2378 18.3348 7.33769 18.4451 7.33145 18.4451C7.32729 18.4451 7.29815 18.3951 7.29399 18.3868C7.27318 18.3514 7.25445 18.314 7.23988 18.2765C7.26069 18.3265 7.2815 18.3764 7.30231 18.4264C7.27526 18.3577 7.25653 18.289 7.24612 18.2162C7.25445 18.2723 7.26069 18.3265 7.26902 18.3826C7.26069 18.3098 7.26069 18.237 7.26693 18.1641C7.25861 18.2203 7.25237 18.2744 7.24404 18.3306C7.25445 18.2557 7.27318 18.1849 7.30023 18.1142C7.27942 18.1641 7.25861 18.2141 7.2378 18.264C7.33353 18.0393 7.48129 17.827 7.602 17.6147C7.75809 17.3421 7.91626 17.0694 8.07234 16.7968C8.18473 16.6012 8.26173 16.3993 8.29295 16.1745C8.33665 15.8436 8.26381 15.519 8.0994 15.2276C7.95788 14.9799 7.81636 14.7344 7.67484 14.4888C7.52916 14.2349 7.35434 13.9831 7.2378 13.7146C7.25861 13.7645 7.27942 13.8145 7.30023 13.8644C7.27318 13.7937 7.25445 13.7229 7.24404 13.648C7.25237 13.7042 7.25861 13.7583 7.26693 13.8145C7.25861 13.7417 7.25861 13.6688 7.26902 13.596C7.26069 13.6522 7.25445 13.7063 7.24612 13.7625C7.25653 13.6896 7.27526 13.6209 7.30231 13.5523C7.2815 13.6022 7.26069 13.6522 7.23988 13.7021C7.24612 13.6855 7.31272 13.5315 7.33145 13.5335C7.33769 13.5356 7.2378 13.6459 7.27526 13.6043C7.28775 13.5897 7.30023 13.5752 7.31272 13.5627C7.33561 13.5398 7.43551 13.4565 7.34394 13.5273C7.25445 13.596 7.35226 13.5252 7.3814 13.5086C7.3918 13.5023 7.40221 13.4961 7.41262 13.4919C7.52292 13.4274 7.63322 13.365 7.74144 13.3025C8.05153 13.1235 8.36163 12.9446 8.67172 12.7656C8.80908 12.6865 8.93603 12.6074 9.05882 12.5013C9.37099 12.2328 9.53957 11.8145 9.54581 11.4066C9.54997 11.1444 9.54581 10.88 9.54581 10.6178C9.54581 10.4139 9.54581 10.2078 9.54581 10.0039C9.54581 9.88733 9.53957 9.76871 9.55413 9.65424C9.54581 9.71043 9.53957 9.76454 9.53124 9.82074C9.54165 9.7479 9.56038 9.67714 9.58743 9.60846C9.56662 9.65841 9.54581 9.70835 9.525 9.7583C9.54581 9.70835 9.57286 9.66257 9.59992 9.6147C9.64779 9.53354 9.50835 9.7146 9.5583 9.66673C9.57703 9.648 9.59368 9.62719 9.61241 9.60846C9.62906 9.59181 9.64571 9.57932 9.66235 9.56267C9.73728 9.49191 9.53124 9.64592 9.62073 9.59597C9.6686 9.56892 9.7123 9.54186 9.76433 9.52105C9.71438 9.54186 9.66444 9.56267 9.61449 9.58348C9.68317 9.55643 9.75393 9.5377 9.82677 9.52729C9.77058 9.53562 9.71646 9.54186 9.66027 9.55018C9.92458 9.51897 10.2035 9.54186 10.4698 9.54186C10.7779 9.54186 11.0838 9.54394 11.3918 9.54186C11.9662 9.53978 12.4449 9.23177 12.7279 8.74061C12.8965 8.44717 13.0651 8.15372 13.2357 7.86028C13.319 7.71668 13.4001 7.57308 13.4834 7.43156C13.5021 7.40034 13.5188 7.36704 13.5396 7.33583C13.6082 7.22761 13.4417 7.44405 13.5292 7.34831C13.5541 7.32126 13.5833 7.29628 13.6103 7.27131C13.6499 7.23385 13.5396 7.33374 13.5396 7.3275C13.5396 7.32334 13.5895 7.2942 13.5978 7.29004C13.6332 7.26923 13.6707 7.2505 13.7081 7.23593C13.6582 7.25674 13.6082 7.27755 13.5583 7.29836C13.627 7.27131 13.6957 7.25258 13.7685 7.24217C13.7123 7.2505 13.6582 7.25674 13.602 7.26507C13.6748 7.25674 13.7477 7.25674 13.8205 7.26298C13.7643 7.25466 13.7102 7.24842 13.654 7.24009C13.729 7.2505 13.7997 7.26923 13.8705 7.29628C13.8205 7.27547 13.7706 7.25466 13.7206 7.23385C13.9454 7.32958 14.1577 7.47734 14.3699 7.59805C14.6426 7.75414 14.9152 7.91231 15.1878 8.0684C15.3835 8.18078 15.5853 8.25778 15.8101 8.289C16.141 8.3327 16.4657 8.25986 16.757 8.09545C17.0047 7.95393 17.2503 7.81241 17.4959 7.67089C17.7498 7.52521 18.0016 7.35039 18.2701 7.23385C18.2201 7.25466 18.1702 7.27547 18.1202 7.29628C18.191 7.26923 18.2617 7.2505 18.3366 7.24009C18.2805 7.24842 18.2263 7.25466 18.1702 7.26298C18.243 7.25466 18.3158 7.25466 18.3887 7.26507C18.3325 7.25674 18.2784 7.2505 18.2222 7.24217C18.295 7.25258 18.3637 7.27131 18.4324 7.29836C18.3824 7.27755 18.3325 7.25674 18.2825 7.23593C18.2992 7.24217 18.4532 7.30877 18.4511 7.3275C18.449 7.33374 18.3387 7.23385 18.3804 7.27131C18.3949 7.2838 18.4095 7.29628 18.422 7.30877C18.4449 7.33166 18.5281 7.43156 18.4574 7.33999C18.3887 7.2505 18.4594 7.34831 18.4761 7.37745C18.4823 7.38785 18.4886 7.39826 18.4927 7.40867C18.5573 7.51897 18.6197 7.62927 18.6821 7.73749C18.8611 8.04758 19.0401 8.35768 19.2191 8.66777C19.2981 8.80513 19.3772 8.93208 19.4834 9.05487C19.7518 9.36704 20.1702 9.53562 20.5781 9.54186C20.8403 9.54602 21.1046 9.54186 21.3668 9.54186C21.5708 9.54186 21.7768 9.54186 21.9808 9.54186C22.0973 9.54186 22.2159 9.53562 22.3304 9.55018C22.2742 9.54186 22.2201 9.53562 22.1639 9.52729C22.2368 9.5377 22.3075 9.55643 22.3762 9.58348C22.3262 9.56267 22.2763 9.54186 22.2263 9.52105C22.2763 9.54186 22.3221 9.56892 22.3699 9.59597C22.4511 9.64384 22.27 9.5044 22.3179 9.55435C22.3366 9.57308 22.3575 9.58973 22.3762 9.60846C22.3928 9.62511 22.4053 9.64176 22.422 9.65841C22.4927 9.73333 22.3387 9.52729 22.3887 9.61678C22.4157 9.66465 22.4428 9.70835 22.4636 9.76038C22.4428 9.71043 22.422 9.66049 22.4012 9.61054C22.4282 9.67922 22.4469 9.74998 22.4574 9.82282C22.449 9.76663 22.4428 9.71252 22.4345 9.65632C22.4657 9.92063 22.4428 10.1995 22.4428 10.4659C22.4428 10.7739 22.4407 11.0798 22.4428 11.3879C22.4449 11.9623 22.7529 12.4409 23.244 12.724C23.5375 12.8925 23.8309 13.0611 24.1244 13.2318C24.268 13.315 24.4116 13.3962 24.5531 13.4794C24.5843 13.4982 24.6176 13.5148 24.6488 13.5356C24.757 13.6043 24.5406 13.4378 24.6363 13.5252C24.6634 13.5502 24.6884 13.5793 24.7133 13.6064C24.7508 13.6459 24.6509 13.5356 24.6571 13.5356C24.6613 13.5356 24.6904 13.5856 24.6946 13.5939C24.7154 13.6293 24.7341 13.6667 24.7487 13.7042C24.7279 13.6542 24.7071 13.6043 24.6863 13.5543C24.7133 13.623 24.7321 13.6917 24.7425 13.7645C24.7341 13.7084 24.7279 13.6542 24.7196 13.598C24.7279 13.6709 24.7279 13.7437 24.7217 13.8166C24.73 13.7604 24.7362 13.7063 24.7446 13.6501C24.7341 13.725 24.7154 13.7958 24.6884 13.8665C24.7092 13.8166 24.73 13.7666 24.7508 13.7167C24.6405 13.9768 24.4698 14.2203 24.3304 14.4638C24.1806 14.724 24.0266 14.9841 23.8809 15.2463C23.6207 15.7146 23.6207 16.2619 23.8788 16.7323C24.037 17.0195 24.4553 17.136 24.7321 16.957C25.0234 16.7697 25.1233 16.4097 24.9568 16.1038C24.9402 16.0726 24.9256 16.0434 24.911 16.0101C24.9319 16.0601 24.9527 16.11 24.9735 16.16C24.9443 16.085 24.9235 16.0101 24.9131 15.929C24.9215 15.9851 24.9277 16.0393 24.936 16.0954C24.9298 16.0268 24.9298 15.9602 24.936 15.8915C24.9277 15.9477 24.9215 16.0018 24.9131 16.058C24.9235 15.9768 24.9443 15.9019 24.9735 15.827C24.9527 15.8769 24.9319 15.9269 24.911 15.9768C25.0318 15.7063 25.2066 15.4524 25.3523 15.1964C25.4938 14.9487 25.6395 14.7031 25.7789 14.4555C26.1764 13.7417 25.935 12.8426 25.2274 12.4284C24.9464 12.264 24.6634 12.1038 24.3824 11.9414C24.218 11.8478 24.0557 11.7521 23.8913 11.6584C23.8642 11.6418 23.8351 11.6272 23.808 11.6105C23.7831 11.596 23.6832 11.5231 23.7706 11.5918C23.8621 11.6626 23.7456 11.5606 23.7248 11.5398C23.6915 11.5065 23.6811 11.4545 23.7664 11.5981C23.756 11.5814 23.7435 11.5648 23.7331 11.5502C23.7061 11.5086 23.6852 11.4649 23.6665 11.4191C23.6873 11.469 23.7081 11.519 23.7289 11.5689C23.704 11.5044 23.6852 11.4378 23.6748 11.3691C23.6832 11.4253 23.6894 11.4794 23.6977 11.5356C23.6623 11.2588 23.6894 10.9654 23.6894 10.6886C23.6894 10.3889 23.6915 10.0871 23.6894 9.78744C23.6852 9.41491 23.5541 9.08817 23.319 8.80305C23.0609 8.49087 22.6655 8.32854 22.27 8.30357C21.9974 8.28484 21.7185 8.30149 21.4438 8.30149C21.2378 8.30149 21.0318 8.30149 20.8257 8.30149C20.7029 8.30149 20.576 8.30773 20.4532 8.29316C20.5094 8.30149 20.5635 8.30773 20.6197 8.31605C20.551 8.30565 20.4844 8.28692 20.4199 8.26194C20.4698 8.28276 20.5198 8.30357 20.5697 8.32438C20.5344 8.30981 20.499 8.29316 20.4636 8.27235C20.4386 8.25778 20.3366 8.18286 20.4303 8.2557C20.5198 8.32438 20.4261 8.24738 20.4053 8.22656C20.4032 8.22448 20.3658 8.19118 20.3658 8.18286C20.3679 8.19951 20.4615 8.31814 20.4012 8.22448C20.3824 8.19535 20.3658 8.16621 20.3491 8.13499C20.2742 8.00596 20.2014 7.87693 20.1264 7.7479C19.9475 7.43572 19.7664 7.12563 19.5874 6.81345C19.4563 6.58661 19.2898 6.39722 19.0713 6.24946C18.7279 6.02053 18.2638 5.95601 17.8684 6.07256C17.5396 6.17037 17.2315 6.3889 16.936 6.55955C16.7404 6.67193 16.5468 6.78432 16.3512 6.8967C16.2388 6.96122 16.1285 7.03198 16.0099 7.08609C16.0599 7.06527 16.1098 7.04446 16.1597 7.02365C16.0848 7.05279 16.0099 7.0736 15.9287 7.084C15.9849 7.07568 16.039 7.06944 16.0952 7.06111C16.0266 7.06736 15.96 7.06736 15.8913 7.06111C15.9475 7.06944 16.0016 7.07568 16.0578 7.084C15.9766 7.0736 15.9017 7.05279 15.8268 7.02365C15.8767 7.04446 15.9267 7.06527 15.9766 7.08609C15.7061 6.96538 15.4522 6.79056 15.1962 6.6428C14.9464 6.48879 14.7009 6.34311 14.4511 6.20367C13.7373 5.80617 12.8361 6.04758 12.4241 6.75518C12.2596 7.03614 12.0994 7.31918 11.9371 7.60013C11.8434 7.76455 11.7477 7.92688 11.654 8.09129C11.6374 8.11834 11.6228 8.14748 11.6062 8.17454C11.5916 8.19951 11.5188 8.29941 11.5874 8.212C11.6582 8.12042 11.5562 8.23697 11.5354 8.25778C11.5021 8.29108 11.4501 8.30149 11.5937 8.21616C11.577 8.22656 11.5604 8.23905 11.5458 8.24946C11.5042 8.27651 11.4605 8.29732 11.4147 8.31605C11.4646 8.29524 11.5146 8.27443 11.5645 8.25362C11.5 8.27859 11.4334 8.29732 11.3647 8.30773C11.4209 8.2994 11.475 8.29316 11.5312 8.28484C11.2544 8.32022 10.961 8.29316 10.6842 8.29316C10.3845 8.29316 10.0827 8.29108 9.78306 8.29316C9.41053 8.29732 9.08379 8.42844 8.79867 8.66361C8.4865 8.92167 8.32417 9.31709 8.29919 9.71252C8.28046 9.98515 8.29711 10.264 8.29711 10.5387C8.29711 10.7448 8.29711 10.9508 8.29711 11.1568C8.29711 11.2796 8.30335 11.4066 8.28879 11.5294C8.29711 11.4732 8.30335 11.4191 8.31168 11.3629C8.30127 11.4316 8.28254 11.4982 8.25757 11.5627C8.27838 11.5127 8.29919 11.4628 8.32 11.4128C8.30544 11.4482 8.28879 11.4836 8.26797 11.519C8.25341 11.5439 8.17848 11.6459 8.25133 11.5523C8.32 11.4628 8.243 11.5564 8.22219 11.5772C8.22011 11.5793 8.18681 11.6168 8.17848 11.6168C8.19513 11.6147 8.31376 11.521 8.22011 11.5814C8.19097 11.6001 8.16183 11.6168 8.13062 11.6334C8.00159 11.7084 7.87255 11.7812 7.74352 11.8561C7.43135 12.0351 7.12125 12.2162 6.80908 12.3951C6.58223 12.5263 6.39285 12.6927 6.24508 12.9113C6.01615 13.2547 5.95164 13.7188 6.06818 14.1142C6.166 14.443 6.38452 14.751 6.55518 15.0465C6.66756 15.2422 6.77994 15.4357 6.89232 15.6313C6.95684 15.7437 7.0276 15.854 7.08171 15.9727C7.0609 15.9227 7.04009 15.8728 7.01928 15.8228C7.04841 15.8977 7.06922 15.9727 7.07963 16.0538C7.0713 15.9976 7.06506 15.9435 7.05674 15.8873C7.06298 15.956 7.06298 16.0226 7.05674 16.0913C7.06506 16.0351 7.0713 15.981 7.07963 15.9248C7.06922 16.006 7.04841 16.0809 7.01928 16.1558C7.04009 16.1059 7.0609 16.0559 7.08171 16.006C6.961 16.2765 6.78619 16.5304 6.63842 16.7864C6.48858 17.0361 6.3429 17.2817 6.20346 17.5315C5.80596 18.2453 6.04737 19.1464 6.75497 19.5585C7.03592 19.7229 7.31896 19.8832 7.59992 20.0455C7.76433 20.1392 7.92666 20.2349 8.09108 20.3285C8.11813 20.3452 8.14727 20.3598 8.17432 20.3764C8.1993 20.391 8.29919 20.4638 8.21178 20.3951C8.12021 20.3244 8.23676 20.4264 8.25757 20.4472C8.29087 20.4805 8.30127 20.5325 8.21595 20.3889C8.22635 20.4055 8.23884 20.4222 8.24924 20.4368C8.2763 20.4784 8.29711 20.5221 8.31584 20.5679C8.29503 20.5179 8.27422 20.468 8.25341 20.418C8.27838 20.4825 8.29711 20.5491 8.30752 20.6178C8.29919 20.5616 8.29295 20.5075 8.28462 20.4513C8.32 20.7281 8.29295 21.0216 8.29295 21.2984C8.29295 21.598 8.29087 21.8998 8.29295 22.1995C8.29711 22.572 8.42822 22.8988 8.6634 23.1839C8.92146 23.4961 9.31688 23.6584 9.7123 23.6834C9.98493 23.7021 10.2638 23.6855 10.5385 23.6855C10.7446 23.6855 10.9506 23.6855 11.1566 23.6855C11.2794 23.6855 11.4064 23.6792 11.5292 23.6938C11.473 23.6855 11.4189 23.6792 11.3627 23.6709C11.4313 23.6813 11.4979 23.7 11.5625 23.725C11.5125 23.7042 11.4626 23.6834 11.4126 23.6626C11.448 23.6771 11.4834 23.6938 11.5188 23.7146C11.5437 23.7292 11.6457 23.8041 11.5521 23.7312C11.4626 23.6626 11.5562 23.7396 11.577 23.7604C11.5791 23.7625 11.6166 23.7958 11.6166 23.8041C11.6145 23.7874 11.5208 23.6688 11.5812 23.7625C11.5999 23.7916 11.6166 23.8207 11.6332 23.8519C11.7081 23.981 11.781 24.11 11.8559 24.239C12.0349 24.5512 12.2159 24.8613 12.3949 25.1735C12.526 25.4003 12.6925 25.5897 12.9111 25.7375C13.2544 25.9664 13.7185 26.0309 14.114 25.9144C14.4428 25.8166 14.7508 25.598 15.0463 25.4274C15.242 25.315 15.4355 25.2026 15.6311 25.0902C15.7435 25.0257 15.8538 24.955 15.9724 24.9009C15.9225 24.9217 15.8725 24.9425 15.8226 24.9633C15.8975 24.9342 15.9724 24.9133 16.0536 24.9029C15.9974 24.9113 15.9433 24.9175 15.8871 24.9258C15.9558 24.9196 16.0224 24.9196 16.0911 24.9258C16.0349 24.9175 15.9808 24.9113 15.9246 24.9029C16.0057 24.9133 16.0807 24.9342 16.1556 24.9633C16.1056 24.9425 16.0557 24.9217 16.0057 24.9009C16.2763 25.0216 16.5302 25.1964 16.7862 25.3441C17.0338 25.4857 17.2794 25.6334 17.5271 25.7708C18.2409 26.1683 19.1421 25.9269 19.5541 25.2193C19.7185 24.9383 19.8788 24.6553 20.0411 24.3743C20.1348 24.2099 20.2305 24.0476 20.3242 23.8832C20.3408 23.8561 20.3554 23.827 20.372 23.7999C20.3866 23.7749 20.4594 23.675 20.3908 23.7625C20.32 23.854 20.422 23.7375 20.4428 23.7167C20.4761 23.6834 20.5281 23.673 20.3845 23.7583C20.4012 23.7479 20.4178 23.7354 20.4324 23.725C20.474 23.6979 20.5177 23.6771 20.5635 23.6584C20.5135 23.6792 20.4636 23.7 20.4137 23.7208C20.4782 23.6959 20.5448 23.6771 20.6134 23.6667C20.5572 23.675 20.5031 23.6813 20.4469 23.6896C20.7237 23.6542 21.0172 23.6813 21.294 23.6813C21.5937 23.6813 21.8954 23.6834 22.1951 23.6813C22.5677 23.6771 22.8944 23.546 23.1795 23.3108C23.4917 23.0528 23.654 22.6574 23.679 22.2619C23.6977 21.9893 23.6811 21.7104 23.6811 21.4357C23.6811 21.2297 23.6811 21.0236 23.6811 20.8176C23.6811 20.6948 23.6748 20.5679 23.6894 20.4451C23.6811 20.5013 23.6748 20.5554 23.6665 20.6116C23.6769 20.5429 23.6956 20.4763 23.7206 20.4118C23.6998 20.4617 23.679 20.5117 23.6582 20.5616C23.6728 20.5262 23.6894 20.4909 23.7102 20.4555C23.7248 20.4326 23.7997 20.3285 23.7269 20.4222C23.6582 20.5117 23.7352 20.418 23.756 20.3972C23.7643 20.391 23.7997 20.3639 23.7997 20.3577C23.7976 20.3681 23.6728 20.4451 23.7456 20.4014C23.7789 20.3806 23.8122 20.3598 23.8476 20.341C23.9745 20.2682 24.0994 20.1953 24.2263 20.1225C24.5385 19.9435 24.8507 19.7625 25.1608 19.5835C25.3793 19.4565 25.5583 19.3004 25.7081 19.0965C25.9558 18.7593 26.0182 18.3015 25.9204 17.8998C25.8413 17.571 25.6103 17.2526 25.4438 16.9633C25.2773 16.674 25.1108 16.3847 24.9443 16.0954C24.782 15.8124 24.372 15.6896 24.0911 15.8707" fill="#499B1F"/>
<path d="M18.8764 12.2245C18.6558 12.4451 18.4352 12.6657 18.2146 12.8863C17.6859 13.4149 17.1552 13.9456 16.6266 14.4742C15.9856 15.1152 15.3467 15.7542 14.7057 16.3952C14.1521 16.9487 13.5985 17.5023 13.0449 18.0559C12.7765 18.3244 12.4997 18.5908 12.2354 18.8655C12.2312 18.8697 12.2271 18.8738 12.2229 18.878C11.9919 19.109 11.9752 19.5336 12.2229 19.7604C12.4726 19.9893 12.8597 20.0081 13.1053 19.7604C13.3259 19.5398 13.5465 19.3192 13.7671 19.0986C14.2957 18.57 14.8264 18.0393 15.355 17.5107C15.996 16.8697 16.635 16.2307 17.276 15.5897C17.8295 15.0362 18.3831 14.4826 18.9367 13.929C19.2052 13.6605 19.482 13.3941 19.7463 13.1194C19.7505 13.1152 19.7546 13.1111 19.7588 13.1069C19.9898 12.8759 20.0064 12.4514 19.7588 12.2245C19.5111 11.9956 19.124 11.9768 18.8764 12.2245V12.2245Z" fill="white"/>
<path d="M13.9665 13.9672C13.9374 13.9963 13.9082 14.0213 13.877 14.0483C13.7979 14.1191 14.0165 13.9526 13.8853 14.04C13.8208 14.0837 13.7521 14.1191 13.6814 14.1503C13.7313 14.1295 13.7813 14.1087 13.8312 14.0879C13.7168 14.1357 13.5981 14.169 13.4753 14.1857C13.5315 14.1774 13.5857 14.1711 13.6418 14.1628C13.5295 14.1753 13.4171 14.1753 13.3026 14.1628C13.3588 14.1711 13.4129 14.1774 13.4691 14.1857C13.3463 14.169 13.2277 14.1357 13.1132 14.0879C13.1632 14.1087 13.2131 14.1295 13.2631 14.1503C13.1923 14.1191 13.1236 14.0837 13.0591 14.04C12.928 13.9526 13.1444 14.1191 13.0674 14.0483C13.0383 14.0213 13.0071 13.9963 12.978 13.9672C12.9488 13.938 12.9238 13.9089 12.8968 13.8777C12.826 13.7986 12.9925 14.0171 12.9051 13.886C12.8614 13.8215 12.826 13.7528 12.7948 13.682C12.8156 13.732 12.8364 13.7819 12.8572 13.8319C12.8094 13.7174 12.7761 13.5988 12.7594 13.476C12.7678 13.5322 12.774 13.5863 12.7823 13.6425C12.7698 13.5301 12.7698 13.4177 12.7823 13.3033C12.774 13.3595 12.7678 13.4136 12.7594 13.4698C12.7761 13.347 12.8094 13.2283 12.8572 13.1139C12.8364 13.1638 12.8156 13.2138 12.7948 13.2637C12.826 13.193 12.8614 13.1243 12.9051 13.0598C12.9925 12.9287 12.826 13.1451 12.8968 13.0681C12.9238 13.039 12.9488 13.0077 12.978 12.9786C13.0071 12.9495 13.0362 12.9245 13.0674 12.8974C13.1465 12.8267 12.928 12.9932 13.0591 12.9058C13.1236 12.8621 13.1923 12.8267 13.2631 12.7955C13.2131 12.8163 13.1632 12.8371 13.1132 12.8579C13.2277 12.81 13.3463 12.7767 13.4691 12.7601C13.4129 12.7684 13.3588 12.7746 13.3026 12.783C13.415 12.7705 13.5274 12.7705 13.6418 12.783C13.5857 12.7746 13.5315 12.7684 13.4753 12.7601C13.5981 12.7767 13.7168 12.81 13.8312 12.8579C13.7813 12.8371 13.7313 12.8163 13.6814 12.7955C13.7521 12.8267 13.8208 12.8621 13.8853 12.9058C14.0165 12.9932 13.8 12.8267 13.877 12.8974C13.9062 12.9245 13.9374 12.9495 13.9665 12.9786C13.9956 13.0077 14.0206 13.0369 14.0477 13.0681C14.1184 13.1472 13.9519 12.9287 14.0393 13.0598C14.0831 13.1243 14.1184 13.193 14.1496 13.2637C14.1288 13.2138 14.108 13.1638 14.0872 13.1139C14.1351 13.2283 14.1684 13.347 14.185 13.4698C14.1767 13.4136 14.1705 13.3595 14.1621 13.3033C14.1746 13.4156 14.1746 13.528 14.1621 13.6425C14.1705 13.5863 14.1767 13.5322 14.185 13.476C14.1684 13.5988 14.1351 13.7174 14.0872 13.8319C14.108 13.7819 14.1288 13.732 14.1496 13.682C14.1184 13.7528 14.0831 13.8215 14.0393 13.886C13.9519 14.0171 14.1184 13.8007 14.0477 13.8777C14.0206 13.9089 13.9956 13.938 13.9665 13.9672C13.7376 14.2002 13.7168 14.6206 13.9665 14.8496C14.2142 15.0764 14.6054 15.0993 14.8489 14.8496C15.1132 14.579 15.3213 14.2231 15.3817 13.8464C15.4525 13.4115 15.4025 13.0036 15.2152 12.6019C14.8905 11.911 14.0893 11.4489 13.3276 11.5259C12.8905 11.5696 12.5159 11.7257 12.1788 12.0088C11.8874 12.2523 11.671 12.6144 11.5794 12.9807C11.3755 13.8007 11.7168 14.6394 12.4119 15.1076C13.1673 15.6175 14.21 15.4718 14.8489 14.8475C15.082 14.6186 15.0945 14.1898 14.8489 13.9651C14.5971 13.7361 14.2162 13.7237 13.9665 13.9672Z" fill="white"/>
<path d="M19.0136 19.0087C18.9845 19.0378 18.9554 19.0628 18.9241 19.0898C18.845 19.1606 19.0636 18.9941 18.9325 19.0815C18.8679 19.1252 18.7993 19.1606 18.7285 19.1918C18.7785 19.171 18.8284 19.1502 18.8783 19.1294C18.7639 19.1772 18.6453 19.2105 18.5225 19.2272C18.5787 19.2189 18.6328 19.2126 18.689 19.2043C18.5766 19.2168 18.4642 19.2168 18.3497 19.2043C18.4059 19.2126 18.46 19.2189 18.5162 19.2272C18.3934 19.2105 18.2748 19.1772 18.1603 19.1294C18.2103 19.1502 18.2602 19.171 18.3102 19.1918C18.2394 19.1606 18.1708 19.1252 18.1062 19.0815C17.9751 18.9941 18.1916 19.1606 18.1146 19.0898C18.0854 19.0628 18.0542 19.0378 18.0251 19.0087C17.9959 18.9795 17.971 18.9504 17.9439 18.9192C17.8731 18.8401 18.0396 19.0586 17.9522 18.9275C17.9085 18.863 17.8731 18.7943 17.8419 18.7235C17.8627 18.7735 17.8836 18.8234 17.9044 18.8734C17.8565 18.7589 17.8232 18.6403 17.8065 18.5175C17.8149 18.5737 17.8211 18.6278 17.8294 18.684C17.817 18.5716 17.817 18.4592 17.8294 18.3448C17.8211 18.401 17.8149 18.4551 17.8065 18.5113C17.8232 18.3885 17.8565 18.2698 17.9044 18.1554C17.8836 18.2053 17.8627 18.2553 17.8419 18.3052C17.8731 18.2345 17.9085 18.1658 17.9522 18.1013C18.0396 17.9702 17.8731 18.1866 17.9439 18.1096C17.971 18.0805 17.9959 18.0492 18.0251 18.0201C18.0542 17.991 18.0833 17.966 18.1146 17.9389C18.1936 17.8682 17.9751 18.0347 18.1062 17.9473C18.1708 17.9036 18.2394 17.8682 18.3102 17.837C18.2602 17.8578 18.2103 17.8786 18.1603 17.8994C18.2748 17.8515 18.3934 17.8182 18.5162 17.8016C18.46 17.8099 18.4059 17.8161 18.3497 17.8245C18.4621 17.812 18.5745 17.812 18.689 17.8245C18.6328 17.8161 18.5787 17.8099 18.5225 17.8016C18.6453 17.8182 18.7639 17.8515 18.8783 17.8994C18.8284 17.8786 18.7785 17.8578 18.7285 17.837C18.7993 17.8682 18.8679 17.9036 18.9325 17.9473C19.0636 18.0347 18.8471 17.8682 18.9241 17.9389C18.9533 17.966 18.9845 17.991 19.0136 18.0201C19.0428 18.0492 19.0677 18.0784 19.0948 18.1096C19.1655 18.1887 18.9991 17.9702 19.0865 18.1013C19.1302 18.1658 19.1655 18.2345 19.1968 18.3052C19.176 18.2553 19.1551 18.2053 19.1343 18.1554C19.1822 18.2698 19.2155 18.3885 19.2321 18.5113C19.2238 18.4551 19.2176 18.401 19.2093 18.3448C19.2217 18.4571 19.2217 18.5695 19.2093 18.684C19.2176 18.6278 19.2238 18.5737 19.2321 18.5175C19.2155 18.6403 19.1822 18.7589 19.1343 18.8734C19.1551 18.8234 19.176 18.7735 19.1968 18.7235C19.1655 18.7943 19.1302 18.863 19.0865 18.9275C18.9991 19.0586 19.1655 18.8422 19.0948 18.9192C19.0677 18.9504 19.0407 18.9795 19.0136 19.0087C18.7847 19.2417 18.7639 19.6621 19.0136 19.8911C19.2613 20.1179 19.6525 20.1408 19.896 19.8911C20.1603 19.6205 20.3685 19.2646 20.4288 18.8879C20.4996 18.453 20.4496 18.0451 20.2623 17.6434C19.9377 16.9525 19.1364 16.4904 18.3747 16.5674C17.9377 16.6112 17.5631 16.7672 17.2259 17.0503C16.9345 17.2938 16.7181 17.6559 16.6265 18.0222C16.4226 18.8422 16.7639 19.6809 17.459 20.1491C18.2145 20.659 19.2571 20.5133 19.896 19.889C20.1291 19.6601 20.1416 19.2313 19.896 19.0066C19.6442 18.7776 19.2613 18.7652 19.0136 19.0087Z" fill="white"/>
</svg>
