<svg width="421" height="96" viewBox="0 0 421 96" fill="none" xmlns="http://www.w3.org/2000/svg">
<mask id="mask0" mask-type="alpha" maskUnits="userSpaceOnUse" x="126" y="10" width="231" height="86">
<rect width="229.54" height="85.0284" transform="matrix(-1 0 0 1 356.475 10.9714)" fill="#C4C4C4"/>
</mask>
<g mask="url(#mask0)">
<path d="M129.771 142.272C135.457 154.061 147.007 161.944 158.973 167.142C168.554 171.277 178.681 173.992 189.038 175.204C191.021 175.44 193.011 175.624 195.008 175.754C200.109 176.088 205.227 176.083 210.328 175.737C213.396 175.532 216.454 175.204 219.5 174.754C230.087 173.202 240.408 170.182 250.169 165.781C252.986 164.506 255.746 163.114 258.448 161.606C262.963 159.092 267.288 156.249 271.39 153.102C272.298 152.405 273.194 151.693 274.079 150.966L274.443 150.667C275.139 150.09 275.828 149.501 276.528 148.929C277.691 147.95 278.926 147.06 280.222 146.266C280.31 146.215 280.398 146.163 280.488 146.113C280.728 145.974 280.972 145.842 281.22 145.718C281.731 145.459 282.256 145.226 282.791 145.021C285.264 144.074 287.911 143.73 290.596 143.788C291.041 143.788 291.486 143.819 291.934 143.849C292.559 143.892 293.186 143.956 293.811 144.038L294.042 144.07C296.034 144.353 298.003 144.778 299.935 145.341C302.919 146.202 305.85 147.277 308.799 148.247C310.052 148.662 311.306 149.058 312.571 149.413L312.849 149.49C314.649 149.999 316.48 150.384 318.331 150.643C322.538 151.184 326.811 150.838 330.877 149.628L331.019 149.587L331.28 149.51L331.637 149.398C332.237 149.209 332.831 149.001 333.42 148.776L333.778 148.639C334.349 148.418 334.907 148.18 335.454 147.927L335.811 147.763C336.382 147.496 336.941 147.215 337.487 146.918C337.684 146.815 337.879 146.703 338.072 146.597C338.654 146.27 339.225 145.928 339.784 145.569C340.378 145.189 340.959 144.793 341.527 144.38C341.789 144.191 342.049 143.996 342.306 143.797C343.787 142.659 345.173 141.402 346.452 140.039C346.523 139.969 346.589 139.895 346.656 139.824C346.996 139.454 347.33 139.078 347.653 138.693C347.773 138.551 347.893 138.409 348.011 138.263C348.394 137.793 348.765 137.312 349.122 136.82C349.175 136.749 349.226 136.676 349.278 136.605C350.74 134.572 351.953 132.37 352.889 130.045C352.919 129.974 352.947 129.9 352.972 129.829C353.258 129.091 353.518 128.34 353.754 127.578C353.85 127.259 353.942 126.932 354.023 126.614C354.051 126.519 354.077 126.423 354.101 126.328C355.282 121.654 355.417 116.795 355.417 111.965C355.417 111.401 355.417 110.838 355.417 110.276C355.383 102.462 355.263 94.5148 354.116 86.8084C354.116 86.7546 354.101 86.7008 354.092 86.6492C353.708 84.0548 353.186 81.483 352.527 78.9449C351.838 76.2817 350.957 73.6723 349.892 71.1373C347.253 64.8999 343.415 59.2238 339.153 53.9629C334.015 47.633 328.129 41.7913 321.572 36.9712C320.63 36.2787 319.676 35.6062 318.708 34.9538L318.261 34.6591C318.104 34.5537 317.948 34.444 317.792 34.3515C317.471 34.1364 317.15 33.9343 316.824 33.7299L316.46 33.5019L315.767 33.0718L315.553 32.9492L315.183 32.7341L314.816 32.519C314.388 32.2652 313.955 32.0172 313.517 31.7748C311.646 30.7266 309.731 29.7688 307.772 28.9013C307.194 28.6446 306.612 28.3973 306.027 28.1593C303.371 27.0722 300.642 26.1731 297.861 25.4686C296.833 25.2076 295.799 24.9782 294.759 24.7803C293.532 24.5423 292.298 24.3451 291.058 24.1888C289.085 23.9393 287.1 23.7907 285.112 23.7436C271.129 23.4016 257.006 27.9743 246.048 36.739C241.681 40.2319 237.757 44.368 232.853 47.0458C228.572 49.3773 223.561 50.343 218.976 48.5084C215.187 46.992 212.721 46.2392 208.466 46.4694C199.66 46.9677 190.979 48.7919 182.712 51.8809C182.378 52.0035 182.044 52.1304 181.713 52.2573C160.155 60.5488 141.619 77.0134 131.991 98.1712C131.737 98.7305 131.489 99.294 131.248 99.8618C125.505 113.337 123.433 129.135 129.771 142.272Z" fill="#FFF8FB"/>
<g opacity="0.1">
<path d="M312.571 82.3252V163.876L312.849 163.954C314.649 164.462 316.48 164.848 318.331 165.107C322.538 165.647 326.811 165.301 330.877 164.091L331.019 164.051L331.28 163.973L331.637 163.861C332.237 163.672 332.831 163.465 333.42 163.24L333.778 163.102C334.349 162.881 334.907 162.644 335.454 162.39L335.811 162.227C336.382 161.96 336.941 161.678 337.487 161.381C337.684 161.278 337.879 161.166 338.072 161.061C338.654 160.734 339.225 160.391 339.784 160.033C340.378 159.653 340.959 159.256 341.527 158.843C341.789 158.654 342.049 158.46 342.306 158.261C343.787 157.123 345.173 155.866 346.452 154.503C346.523 154.432 346.589 154.359 346.656 154.288C346.996 153.918 347.33 153.542 347.653 153.157C347.773 153.015 347.893 152.873 348.011 152.726C348.394 152.256 348.765 151.775 349.122 151.283C349.175 151.212 349.226 151.139 349.278 151.068C350.74 149.036 351.953 146.833 352.889 144.508C352.919 144.437 352.947 144.364 352.972 144.293C353.258 143.555 353.518 142.804 353.754 142.041C353.85 141.723 353.942 141.396 354.023 141.077C354.051 140.983 354.077 140.886 354.101 140.791C355.282 136.118 355.417 131.259 355.417 126.428C355.417 125.865 355.417 125.302 355.417 124.74C355.383 116.926 355.263 108.978 354.116 101.272C354.116 101.218 354.101 101.164 354.092 101.113C353.708 98.5184 353.186 95.9466 352.527 93.4085H330.668V82.3252H326.309V73.4229H316.929V82.3252H312.571Z" fill="#FFF8FB"/>
<path d="M312.571 82.3252V163.876L312.849 163.954C314.649 164.462 316.48 164.848 318.331 165.107C322.538 165.647 326.811 165.301 330.877 164.091L331.019 164.051L331.28 163.973L331.637 163.861C332.237 163.672 332.831 163.465 333.42 163.24L333.778 163.102C334.349 162.881 334.907 162.644 335.454 162.39L335.811 162.227C336.382 161.96 336.941 161.678 337.487 161.381C337.684 161.278 337.879 161.166 338.072 161.061C338.654 160.734 339.225 160.391 339.784 160.033C340.378 159.653 340.959 159.256 341.527 158.843C341.789 158.654 342.049 158.46 342.306 158.261C343.787 157.123 345.173 155.866 346.452 154.503C346.523 154.432 346.589 154.359 346.656 154.288C346.996 153.918 347.33 153.542 347.653 153.157C347.773 153.015 347.893 152.873 348.011 152.726C348.394 152.256 348.765 151.775 349.122 151.283C349.175 151.212 349.226 151.139 349.278 151.068C350.74 149.036 351.953 146.833 352.889 144.508C352.919 144.437 352.947 144.364 352.972 144.293C353.258 143.555 353.518 142.804 353.754 142.041C353.85 141.723 353.942 141.396 354.023 141.077C354.051 140.983 354.077 140.886 354.101 140.791C355.282 136.118 355.417 131.259 355.417 126.428C355.417 125.865 355.417 125.302 355.417 124.74C355.383 116.926 355.263 108.978 354.116 101.272C354.116 101.218 354.101 101.164 354.092 101.113C353.708 98.5184 353.186 95.9466 352.527 93.4085H330.668V82.3252H326.309V73.4229H316.929V82.3252H312.571Z" fill="black" fill-opacity="0.5"/>
</g>
<g opacity="0.1">
<path d="M129.41 142.814C135.095 154.603 146.646 162.486 158.612 167.684C168.192 171.819 178.319 174.534 188.676 175.746C190.66 175.982 192.65 176.166 194.646 176.296C199.748 176.63 204.866 176.624 209.967 176.279C213.035 176.074 216.092 175.746 219.139 175.296C229.725 173.744 240.047 170.724 249.807 166.323C252.624 165.048 255.384 163.656 258.087 162.148C262.601 159.634 266.927 156.791 271.029 153.643C271.937 152.947 272.833 152.235 273.717 151.508L274.081 151.209C274.777 150.632 275.466 150.043 276.166 149.471C277.33 148.492 278.565 147.602 279.861 146.808C279.949 146.757 280.037 146.705 280.126 146.655C280.366 146.516 280.61 146.384 280.858 146.26C281.37 146.001 281.894 145.768 282.43 145.563V112.201H242.703V119.628H225.267V65.3021H204.746V87.0256H194.595V74.1635H186.208V60.424H182.355V52.4229C182.021 52.5454 181.687 52.6723 181.355 52.7992V60.424H177.605V74.1721H169.225V87.0342H156.867V136.037H137.225V100.399H130.895C125.144 113.879 123.072 129.677 129.41 142.814Z" fill="#FFF8FB"/>
<path d="M129.41 142.814C135.095 154.603 146.646 162.486 158.612 167.684C168.192 171.819 178.319 174.534 188.676 175.746C190.66 175.982 192.65 176.166 194.646 176.296C199.748 176.63 204.866 176.624 209.967 176.279C213.035 176.074 216.092 175.746 219.139 175.296C229.725 173.744 240.047 170.724 249.807 166.323C252.624 165.048 255.384 163.656 258.087 162.148C262.601 159.634 266.927 156.791 271.029 153.643C271.937 152.947 272.833 152.235 273.717 151.508L274.081 151.209C274.777 150.632 275.466 150.043 276.166 149.471C277.33 148.492 278.565 147.602 279.861 146.808C279.949 146.757 280.037 146.705 280.126 146.655C280.366 146.516 280.61 146.384 280.858 146.26C281.37 146.001 281.894 145.768 282.43 145.563V112.201H242.703V119.628H225.267V65.3021H204.746V87.0256H194.595V74.1635H186.208V60.424H182.355V52.4229C182.021 52.5454 181.687 52.6723 181.355 52.7992V60.424H177.605V74.1721H169.225V87.0342H156.867V136.037H137.225V100.399H130.895C125.144 113.879 123.072 129.677 129.41 142.814Z" fill="black" fill-opacity="0.5"/>
</g>
<path opacity="0.1" d="M210.317 87.3945H219.49V96.6109H210.317V87.3945Z" fill="#8D8D8D"/>
<path opacity="0.1" d="M267.663 71.3236C267.663 71.3236 272.767 71.0139 272.159 74.6058C272.19 74.7883 272.163 74.9761 272.081 75.1422C272 75.3084 271.868 75.4443 271.705 75.5306C271.705 75.5306 271.705 75.2639 271.183 75.3543C270.999 75.3845 270.813 75.3932 270.628 75.3801C270.378 75.3635 270.14 75.2653 269.95 75.1005C269.95 75.1005 268.515 74.5047 267.957 72.1495C267.957 72.1495 267.546 71.6355 267.561 71.5043L268.417 71.8742C268.417 71.8742 268.122 72.498 268.353 73.0163C268.353 73.0163 268.381 71.8979 268.548 71.9237C268.58 71.9237 268.995 72.1388 268.995 72.1388C268.995 72.1388 268.488 73.2271 268.871 74.0164C268.871 74.0164 268.725 72.6786 269.151 72.2183L269.772 72.5775C269.772 72.5775 269.179 73.7003 269.581 74.6165C269.581 74.6165 269.477 73.212 269.898 72.6657L270.448 73.0959C270.448 73.0959 269.892 74.2014 270.234 74.9628C270.234 74.9628 270.279 73.326 270.57 73.2013C270.779 73.3782 270.965 73.5805 271.125 73.8035C271.125 73.8035 270.744 74.6058 270.979 75.0295C270.979 75.0295 271.125 73.9412 271.245 73.9347C271.245 73.9347 271.722 74.6574 271.771 75.1521C271.749 74.6931 271.608 74.2481 271.36 73.8616C271.636 73.914 271.89 74.0463 272.092 74.2423C272.092 74.2423 272.017 73.7325 271.236 73.6874C271.236 73.6874 270.84 73.1411 270.733 73.1066C270.733 73.1066 271.506 73.0421 271.975 73.2507C271.975 73.2507 271.561 72.769 270.592 72.9883L270.05 72.5431C270.05 72.5431 271.067 72.4033 271.497 72.5582C271.497 72.5582 271.003 72.128 269.905 72.442L269.314 72.0871C269.768 71.9873 270.232 71.9468 270.697 71.9667C270.697 71.9667 270.153 71.672 269.14 71.9925L268.712 71.8011C268.712 71.8011 269.355 71.6763 269.532 71.657C269.71 71.6376 269.729 71.586 269.729 71.586C269.327 71.5186 268.914 71.5648 268.537 71.7193C268.537 71.7193 267.648 71.3795 267.663 71.3236Z" fill="#8D8D8D"/>
<path opacity="0.1" d="M247.232 84.7341C247.232 84.7341 248.974 89.5692 245.376 89.9994C245.21 90.0808 245.023 90.1076 244.842 90.0759C244.661 90.0442 244.494 89.9557 244.365 89.823C244.365 89.823 244.618 89.7391 244.385 89.2702C244.303 89.1027 244.242 88.9257 244.203 88.7433C244.148 88.4971 244.174 88.2397 244.278 88.0099C244.278 88.0099 244.438 86.4591 246.527 85.2525C246.527 85.2525 246.902 84.7105 247.032 84.689L246.923 85.6224C246.923 85.6224 246.245 85.517 245.814 85.887C245.814 85.887 246.885 85.5966 246.915 85.7622C246.915 85.7966 246.836 86.2548 246.836 86.2548C246.836 86.2548 245.654 86.0763 245.007 86.6677C245.007 86.6677 246.245 86.1494 246.806 86.429L246.636 87.1151C246.636 87.1151 245.397 86.8635 244.637 87.5109C244.637 87.5109 245.949 87.0119 246.592 87.2614L246.337 87.9066C246.337 87.9066 245.123 87.6915 244.494 88.2271C244.494 88.2271 246.067 87.7969 246.268 88.0529C246.155 88.3043 246.011 88.5406 245.84 88.7562C245.84 88.7562 244.967 88.6164 244.629 88.9713C244.629 88.9713 245.71 88.8014 245.748 88.9154C245.748 88.9154 245.196 89.58 244.738 89.7757C245.168 89.6234 245.55 89.3601 245.847 89.0122C245.875 89.2931 245.821 89.5764 245.692 89.8273C245.692 89.8273 246.157 89.6122 245.979 88.8508C245.979 88.8508 246.39 88.3131 246.392 88.2056C246.392 88.2056 246.673 88.9326 246.607 89.4423C246.607 89.4423 246.949 88.9089 246.465 88.0357L246.735 87.3904C246.735 87.3904 247.163 88.3303 247.133 88.7885C247.133 88.7885 247.399 88.1905 246.791 87.2205L246.962 86.5494C247.186 86.9557 247.356 87.3895 247.469 87.8399C247.469 87.8399 247.595 87.2313 247.003 86.3473L247.065 85.887C247.065 85.887 247.364 86.4634 247.437 86.6376C247.51 86.8118 247.561 86.8054 247.561 86.8054C247.511 86.3986 247.349 86.0138 247.095 85.6934C247.095 85.6934 247.172 84.7363 247.232 84.7341Z" fill="#8D8D8D"/>
<g opacity="0.1">
<path d="M207.004 34.4215C207.004 34.4215 197.463 15.8168 186.187 25.4117C186.187 25.4117 183.725 26.3129 183.911 28.9283C183.911 28.9283 184.86 28.4056 185.613 30.4038C185.89 31.1127 186.249 31.7863 186.683 32.4105C187.261 33.2537 188.094 33.8861 189.059 34.2129C189.059 34.2129 194.12 38.022 203.493 35.084C203.493 35.084 206.143 35.4668 206.572 35.1356L203.491 32.8729C203.491 32.8729 201.926 35.2066 199.638 35.4733C199.638 35.4733 203.491 33.0428 203.05 32.5159C202.96 32.4083 201.363 31.391 201.363 31.391C201.363 31.391 198.626 35.4367 195.077 35.7357C195.077 35.7357 200.049 33.4579 200.762 31.0038L198.264 29.6036C198.264 29.6036 195.58 34.0236 191.549 34.5183C191.549 34.5183 196.665 31.9567 197.697 29.3348L195.053 28.2981C195.053 28.2981 192.349 32.5567 188.995 32.946C188.995 32.946 194.608 29.3864 194.432 28.1002C194.432 28.1002 191.947 27.2958 191.185 27.4012C191.185 27.4012 189.175 30.4124 187.206 30.4661C187.206 30.4661 190.705 27.6872 190.474 27.2592C190.474 27.2592 186.959 27.0764 185.123 27.9303C185.123 27.9303 187.734 26.4699 190.474 26.7065C190.474 26.7065 189.235 25.2417 187.619 24.9191C187.619 24.9191 189.556 24.119 191.326 26.7602C191.326 26.7602 194.06 27.0119 194.398 27.3173C194.398 27.3173 193.015 24.461 191.313 23.2458C191.313 23.2458 193.85 23.6953 195.107 27.5668L197.787 28.5497C197.787 28.5497 196.158 24.6782 194.721 23.4824C194.721 23.4824 197.239 24.3427 198.442 28.8595L200.908 30.2059C200.908 30.2059 199.758 26.7645 198.446 25.0847C198.446 25.0847 200.61 26.3881 201.601 30.6167L203.142 31.7072C203.142 31.7072 202.258 29.2079 201.939 28.5132C201.62 27.8184 201.781 27.6743 201.781 27.6743C202.852 28.947 203.551 30.4935 203.799 32.1416C203.799 32.1416 206.826 34.5936 207.004 34.4215Z" fill="#FFF8FB"/>
<path d="M207.004 34.4215C207.004 34.4215 197.463 15.8168 186.187 25.4117C186.187 25.4117 183.725 26.3129 183.911 28.9283C183.911 28.9283 184.86 28.4056 185.613 30.4038C185.89 31.1127 186.249 31.7863 186.683 32.4105C187.261 33.2537 188.094 33.8861 189.059 34.2129C189.059 34.2129 194.12 38.022 203.493 35.084C203.493 35.084 206.143 35.4668 206.572 35.1356L203.491 32.8729C203.491 32.8729 201.926 35.2066 199.638 35.4733C199.638 35.4733 203.491 33.0428 203.05 32.5159C202.96 32.4083 201.363 31.391 201.363 31.391C201.363 31.391 198.626 35.4367 195.077 35.7357C195.077 35.7357 200.049 33.4579 200.762 31.0038L198.264 29.6036C198.264 29.6036 195.58 34.0236 191.549 34.5183C191.549 34.5183 196.665 31.9567 197.697 29.3348L195.053 28.2981C195.053 28.2981 192.349 32.5567 188.995 32.946C188.995 32.946 194.608 29.3864 194.432 28.1002C194.432 28.1002 191.947 27.2958 191.185 27.4012C191.185 27.4012 189.175 30.4124 187.206 30.4661C187.206 30.4661 190.705 27.6872 190.474 27.2592C190.474 27.2592 186.959 27.0764 185.123 27.9303C185.123 27.9303 187.734 26.4699 190.474 26.7065C190.474 26.7065 189.235 25.2417 187.619 24.9191C187.619 24.9191 189.556 24.119 191.326 26.7602C191.326 26.7602 194.06 27.0119 194.398 27.3173C194.398 27.3173 193.015 24.461 191.313 23.2458C191.313 23.2458 193.85 23.6953 195.107 27.5668L197.787 28.5497C197.787 28.5497 196.158 24.6782 194.721 23.4824C194.721 23.4824 197.239 24.3427 198.442 28.8595L200.908 30.2059C200.908 30.2059 199.758 26.7645 198.446 25.0847C198.446 25.0847 200.61 26.3881 201.601 30.6167L203.142 31.7072C203.142 31.7072 202.258 29.2079 201.939 28.5132C201.62 27.8184 201.781 27.6743 201.781 27.6743C202.852 28.947 203.551 30.4935 203.799 32.1416C203.799 32.1416 206.826 34.5936 207.004 34.4215Z" fill="black" fill-opacity="0.5"/>
</g>
<g opacity="0.1">
<path d="M167.546 44.3712C167.546 44.3712 163.235 35.9635 158.141 40.2996C158.141 40.2996 157.028 40.7061 157.113 41.8869C157.113 41.8869 157.541 41.6525 157.882 42.5559C158.005 42.8758 158.166 43.1798 158.361 43.4614C158.622 43.8414 158.997 44.1272 159.431 44.2765C159.431 44.2765 161.72 45.9972 165.956 44.6701C165.956 44.6701 167.153 44.8422 167.345 44.6938L165.954 43.67C165.954 43.67 165.247 44.7261 164.211 44.8444C164.211 44.8444 165.95 43.7474 165.753 43.5087C165.714 43.4614 164.993 43.0011 164.993 43.0011C164.993 43.0011 163.755 44.8293 162.15 44.9648C162.15 44.9648 164.398 43.9345 164.719 42.814L163.588 42.1838C163.588 42.1838 162.377 44.1819 160.555 44.4056C160.555 44.4056 162.867 43.2484 163.338 42.0633L162.144 41.5944C162.144 41.5944 160.923 43.5194 159.408 43.6958C159.408 43.6958 161.944 42.087 161.863 41.5062C161.863 41.5062 160.741 41.1428 160.397 41.1901C160.397 41.1901 159.489 42.5516 158.599 42.5731C158.599 42.5731 160.181 41.3191 160.076 41.1256C160.076 41.1256 158.487 41.0438 157.661 41.4288C157.661 41.4288 158.841 40.7685 160.076 40.8761C159.735 40.4867 159.289 40.2056 158.791 40.0673C158.791 40.0673 159.667 39.706 160.467 40.8997C160.467 40.8997 161.703 41.0137 161.855 41.1514C161.855 41.1514 161.23 39.8609 160.461 39.3124C160.461 39.3124 161.608 39.5146 162.174 41.2654L163.372 41.717C163.372 41.717 162.638 39.9684 161.987 39.4264C161.987 39.4264 163.126 39.8157 163.67 41.8547L164.783 42.4612C164.783 42.4612 164.265 40.904 163.672 40.1469C163.672 40.1469 164.65 40.7362 165.095 42.6462L165.793 43.1387C165.793 43.1387 165.393 42.0095 165.25 41.6955C165.106 41.3815 165.179 41.317 165.179 41.317C165.663 41.8941 165.979 42.5946 166.091 43.3409C166.091 43.3409 167.471 44.4486 167.546 44.3712Z" fill="#FFF8FB"/>
<path d="M167.546 44.3712C167.546 44.3712 163.235 35.9635 158.141 40.2996C158.141 40.2996 157.028 40.7061 157.113 41.8869C157.113 41.8869 157.541 41.6525 157.882 42.5559C158.005 42.8758 158.166 43.1798 158.361 43.4614C158.622 43.8414 158.997 44.1272 159.431 44.2765C159.431 44.2765 161.72 45.9972 165.956 44.6701C165.956 44.6701 167.153 44.8422 167.345 44.6938L165.954 43.67C165.954 43.67 165.247 44.7261 164.211 44.8444C164.211 44.8444 165.95 43.7474 165.753 43.5087C165.714 43.4614 164.993 43.0011 164.993 43.0011C164.993 43.0011 163.755 44.8293 162.15 44.9648C162.15 44.9648 164.398 43.9345 164.719 42.814L163.588 42.1838C163.588 42.1838 162.377 44.1819 160.555 44.4056C160.555 44.4056 162.867 43.2484 163.338 42.0633L162.144 41.5944C162.144 41.5944 160.923 43.5194 159.408 43.6958C159.408 43.6958 161.944 42.087 161.863 41.5062C161.863 41.5062 160.741 41.1428 160.397 41.1901C160.397 41.1901 159.489 42.5516 158.599 42.5731C158.599 42.5731 160.181 41.3191 160.076 41.1256C160.076 41.1256 158.487 41.0438 157.661 41.4288C157.661 41.4288 158.841 40.7685 160.076 40.8761C159.735 40.4867 159.289 40.2056 158.791 40.0673C158.791 40.0673 159.667 39.706 160.467 40.8997C160.467 40.8997 161.703 41.0137 161.855 41.1514C161.855 41.1514 161.23 39.8609 160.461 39.3124C160.461 39.3124 161.608 39.5146 162.174 41.2654L163.372 41.717C163.372 41.717 162.638 39.9684 161.987 39.4264C161.987 39.4264 163.126 39.8157 163.67 41.8547L164.783 42.4612C164.783 42.4612 164.265 40.904 163.672 40.1469C163.672 40.1469 164.65 40.7362 165.095 42.6462L165.793 43.1387C165.793 43.1387 165.393 42.0095 165.25 41.6955C165.106 41.3815 165.179 41.317 165.179 41.317C165.663 41.8941 165.979 42.5946 166.091 43.3409C166.091 43.3409 167.471 44.4486 167.546 44.3712Z" fill="black" fill-opacity="0.5"/>
</g>
<path opacity="0.1" d="M214.26 54.1534C214.26 54.1534 209.949 45.7458 204.842 50.0819C204.842 50.0819 203.731 50.4884 203.814 51.6713C203.814 51.6713 204.242 51.4347 204.583 52.3381C204.707 52.6577 204.868 52.9616 205.062 53.2436C205.325 53.6255 205.705 53.9115 206.143 54.0588C206.143 54.0588 208.429 55.7794 212.666 54.4524C212.666 54.4524 213.862 54.6266 214.055 54.476L212.663 53.4522C212.663 53.4522 211.957 54.5083 210.923 54.6287C210.923 54.6287 212.661 53.5296 212.464 53.2909C212.424 53.2436 211.702 52.7833 211.702 52.7833C211.702 52.7833 210.465 54.6115 208.862 54.747C208.862 54.747 211.107 53.7168 211.43 52.5962L210.3 51.9681C210.3 51.9681 209.086 53.9641 207.265 54.1878C207.265 54.1878 209.577 53.0307 210.048 51.8455L208.853 51.3767C208.853 51.3767 207.631 53.3017 206.115 53.478C206.115 53.478 208.652 51.8692 208.573 51.2885C208.573 51.2885 207.449 50.925 207.104 50.9723C207.104 50.9723 206.197 52.3338 205.306 52.3574C205.306 52.3574 206.888 51.1014 206.783 50.9078C206.783 50.9078 205.197 50.826 204.369 51.211C204.369 51.211 205.55 50.5507 206.785 50.6583C206.445 50.2689 205.998 49.9879 205.501 49.8496C205.501 49.8496 206.374 49.4882 207.175 50.6819C207.175 50.6819 208.41 50.7959 208.562 50.9336C208.562 50.9336 207.939 49.6431 207.168 49.0946C207.168 49.0946 208.316 49.2968 208.881 51.0476L210.095 51.4993C210.095 51.4993 209.358 49.7506 208.71 49.2108C208.71 49.2108 209.846 49.5979 210.39 51.6369L211.505 52.2434C211.505 52.2434 210.985 50.6862 210.392 49.9291C210.392 49.9291 211.37 50.5185 211.818 52.4284L212.516 52.921C212.516 52.921 212.115 51.7918 211.972 51.4777C211.829 51.1637 211.899 51.0992 211.899 51.0992C212.384 51.6757 212.7 52.3765 212.811 53.1231C212.811 53.1231 214.185 54.2308 214.26 54.1534Z" fill="#8D8D8D"/>
</g>
<mask id="mask1" mask-type="alpha" maskUnits="userSpaceOnUse" x="227" y="0" width="90" height="96">
<rect width="88.7178" height="95.9998" transform="matrix(-1 0 0 1 316.684 0)" fill="#C4C4C4"/>
</mask>
<g mask="url(#mask1)">
<path d="M282.443 31.1364L282.873 42.281L274.246 42.6171L273.816 31.4725L282.443 31.1364Z" fill="#6C63FF"/>
<path d="M243.527 70.1674C243.527 70.1674 231.581 64.4322 231.772 69.3853C231.963 74.3385 243.814 77.5972 243.814 77.5972L243.527 70.1674Z" fill="#FFB9B9"/>
<path d="M287.902 20.6925C287.902 20.6925 294.47 30.9779 297.03 33.3584C299.591 35.7389 292.387 40.9802 292.387 40.9802L279.495 42.7227C279.495 42.7227 279.657 30.9349 278.993 29.7207C278.329 28.5064 287.902 20.6925 287.902 20.6925Z" fill="#F5BC8E"/>
<path d="M276.696 34.1506C276.696 34.1506 279.352 39.0078 281.816 38.9117C284.281 38.8157 297.03 33.3583 297.575 31.4769C298.119 29.5954 301.797 44.954 301.797 44.954L270.602 100.116L262.992 94.8319L266.679 62.4443L269.707 44.9642L276.696 34.1506Z" fill="white"/>
<path d="M298.726 83.5185C297.437 86.0331 296.78 88.826 296.812 91.6541C296.817 91.7779 296.822 91.9017 296.833 92.0253C297.128 97.7557 299.229 104.383 299.983 109.203C300.529 112.66 300.374 115.184 298.36 115.777C293.478 117.207 299.072 118.229 280.185 124.546C261.298 130.862 258.002 125.41 257.954 124.172C257.907 122.934 260.629 113.526 259.989 112.931C259.349 112.336 251.033 120.721 248.52 119.579C246.008 118.437 248.234 112.149 248.234 112.149C248.234 112.149 253.894 98.9071 253.774 95.8114C253.655 92.7156 262.348 78.1152 262.348 78.1152L268.261 39.4401C268.261 39.4401 270.535 34.3909 273.592 33.6517C275.517 33.2496 277.523 33.6162 279.185 34.6739L274.069 46.0346L268.672 66.0873L269.575 73.493C269.575 73.493 275.851 60.2269 279.974 55.1057C284.096 49.9845 292.885 37.8606 292.885 37.8606C292.885 37.8606 294.937 30.904 293.388 28.8251C291.838 26.74 299.849 26.4279 303.264 34.9759C305.075 39.5063 308.014 46.2622 309.855 52.5524C311.495 58.125 312.27 63.3344 310.645 66.3121C308.161 70.861 301.912 76.8402 298.726 83.5185Z" fill="#3F3D56"/>
<path d="M264.927 64.9928L255.163 67.8535L241.607 68.3817L240.212 80.2175L262.491 81.8298C262.491 81.8298 268.056 66.111 264.927 64.9928Z" fill="#3F3D56"/>
<path opacity="0.1" d="M296.832 92.0249C297.127 97.7553 299.228 104.383 299.982 109.202C295.821 113.159 291.864 116.649 290.373 116.708C287.292 116.828 282.339 116.401 280.514 117.092C278.689 117.783 277.619 106.043 277.619 106.043C277.619 106.043 278.708 102.28 283.566 100.231C286.845 98.8442 293.13 95.0835 296.832 92.0249Z" fill="black"/>
<path d="M304.358 47.3345C304.358 47.3345 314.785 45.688 314.222 63.0721C313.659 80.4562 315.321 91.5527 311.127 94.8165C306.933 98.0803 293.311 112.873 290.23 112.993C287.149 113.113 282.195 112.686 280.371 113.377C278.546 114.068 277.476 102.328 277.476 102.328C277.476 102.328 278.565 98.5656 283.423 96.5161C288.28 94.4666 299.725 87.1998 299.63 84.7232C299.534 82.2466 296.735 73.6747 296.735 73.6747C296.735 73.6747 292.841 52.7438 304.358 47.3345Z" fill="#3F3D56"/>
<path d="M278.707 35.9221C271.214 35.9221 265.14 29.8191 265.14 22.2907C265.14 14.7623 271.214 8.6593 278.707 8.6593C286.199 8.6593 292.273 14.7623 292.273 22.2907C292.273 29.8191 286.199 35.9221 278.707 35.9221Z" fill="#F5BC8E"/>
<path d="M269.572 2.7531C269.244 3.03638 268.852 3.23395 268.431 3.32826C268.219 3.36617 268.001 3.31841 267.824 3.1954C267.648 3.0724 267.527 2.88414 267.488 2.67172C267.244 3.3519 266.79 3.9362 266.193 4.3397C265.56 4.67158 264.58 4.3933 264.488 3.68113C264.396 4.22186 264.158 4.72682 263.8 5.14126C263.613 5.33951 263.356 5.45583 263.085 5.46494C262.814 5.47405 262.55 5.37524 262.35 5.18995C262.628 6.71386 262.457 8.28107 262.544 9.82778C262.631 11.3745 263.041 13.0143 264.204 14.0314C265.901 15.5147 268.451 15.1486 270.682 14.8676C271.02 14.7964 271.37 14.8157 271.697 14.9234C272.533 15.281 272.495 16.4495 272.506 17.3618C272.574 18.9626 273.205 20.4873 274.286 21.6652C275.367 22.8432 276.828 23.5981 278.411 23.7959C279.296 23.9332 280.2 23.7116 280.923 23.1798C281.556 22.6403 281.88 21.7609 282.606 21.3557C283.787 20.6964 285.219 21.6579 286.082 22.7018C286.945 23.7457 287.796 25.0298 289.133 25.2209C290.902 25.4736 292.249 23.6625 292.91 21.9948C293.822 19.6573 294.259 17.1601 294.195 14.6503C294.131 12.1406 293.568 9.66905 292.538 7.38151C288.845 -0.707521 276.229 -1.98696 269.572 2.7531Z" fill="#2F2E41"/>
</g>
<path d="M234.665 59.7481C234.426 59.0096 233.382 59.0096 233.143 59.7481L232.183 62.7156C232.076 63.0458 231.769 63.2695 231.422 63.2695H228.308C227.534 63.2695 227.212 64.2592 227.837 64.7156L230.362 66.5592C230.641 66.763 230.758 67.1228 230.652 67.4515L229.689 70.4298C229.45 71.1675 230.295 71.7792 230.921 71.3221L233.432 69.4892C233.713 69.284 234.095 69.284 234.376 69.4892L236.886 71.3221C237.513 71.7792 238.358 71.1675 238.119 70.4298L237.156 67.4515C237.05 67.1228 237.167 66.763 237.446 66.5592L239.971 64.7156C240.596 64.2592 240.273 63.2695 239.499 63.2695H236.386C236.039 63.2695 235.731 63.0458 235.625 62.7156L234.665 59.7481Z" fill="#477BDE"/>
<g filter="url(#filter0_i)">
<path d="M17.6857 33.1767C17.4469 32.4382 16.4021 32.4382 16.1633 33.1767L13.3038 42.0195C13.197 42.3497 12.8896 42.5734 12.5426 42.5734H3.28088C2.50683 42.5734 2.184 43.5631 2.80918 44.0195L10.3086 49.4943C10.5877 49.698 10.7044 50.0578 10.5981 50.3866L7.73514 59.2401C7.49658 59.9779 8.34181 60.5896 8.96803 60.1324L16.4528 54.6684C16.7338 54.4632 17.1152 54.4632 17.3962 54.6684L24.881 60.1324C25.5072 60.5896 26.3524 59.9779 26.1139 59.2401L23.2509 50.3866C23.1446 50.0578 23.2613 49.698 23.5404 49.4943L31.0398 44.0195C31.665 43.5631 31.3422 42.5734 30.5681 42.5734H21.3064C20.9594 42.5734 20.652 42.3497 20.5452 42.0195L17.6857 33.1767Z" fill="#477BDE"/>
<path d="M113.548 33.1767C113.309 32.4382 112.264 32.4382 112.026 33.1767L109.047 42.3867C108.94 42.7169 108.633 42.9406 108.286 42.9406H98.6401C97.866 42.9406 97.5432 43.9303 98.1684 44.3867L105.979 50.0885C106.258 50.2922 106.375 50.652 106.268 50.9807L103.286 60.2015C103.048 60.9392 103.893 61.5509 104.519 61.0938L112.315 55.4028C112.596 55.1977 112.977 55.1977 113.258 55.4028L121.054 61.0938C121.68 61.5509 122.526 60.9392 122.287 60.2015L119.305 50.9807C119.199 50.652 119.316 50.2922 119.595 50.0885L127.405 44.3867C128.03 43.9303 127.707 42.9406 126.933 42.9406H117.287C116.94 42.9406 116.633 42.7169 116.526 42.3867L113.548 33.1767Z" fill="#477BDE"/>
<path d="M65.4186 33.1767C65.1798 32.4382 64.135 32.4382 63.8962 33.1767L61.0367 42.0195C60.9299 42.3497 60.6225 42.5734 60.2755 42.5734H51.0138C50.2397 42.5734 49.9169 43.5631 50.5421 44.0195L58.0415 49.4943C58.3206 49.698 58.4373 50.0578 58.331 50.3866L55.4681 59.2401C55.2295 59.9779 56.0747 60.5896 56.7009 60.1324L64.1857 54.6684C64.4667 54.4632 64.8481 54.4632 65.1291 54.6684L72.6139 60.1324C73.2401 60.5896 74.0853 59.9779 73.8468 59.2401L70.9838 50.3866C70.8775 50.0578 70.9942 49.698 71.2733 49.4943L78.7727 44.0195C79.3979 43.5631 79.0751 42.5734 78.301 42.5734H69.0393C68.6923 42.5734 68.3849 42.3497 68.2781 42.0195L65.4186 33.1767Z" fill="#477BDE"/>
<path d="M161.677 33.1767C161.439 32.4382 160.394 32.4382 160.155 33.1767L157.295 42.0195C157.189 42.3497 156.881 42.5734 156.534 42.5734H147.273C146.499 42.5734 146.176 43.5631 146.801 44.0195L154.3 49.4943C154.579 49.698 154.696 50.0578 154.59 50.3866L151.727 59.2401C151.488 59.9779 152.334 60.5896 152.96 60.1324L160.444 54.6684C160.726 54.4632 161.107 54.4632 161.388 54.6684L168.873 60.1324C169.499 60.5896 170.344 59.9779 170.106 59.2401L167.243 50.3866C167.136 50.0578 167.253 49.698 167.532 49.4943L175.032 44.0195C175.657 43.5631 175.334 42.5734 174.56 42.5734H165.298C164.951 42.5734 164.644 42.3497 164.537 42.0195L161.677 33.1767Z" fill="#477BDE"/>
<path d="M208.802 33.3305C208.713 33.0536 208.321 33.0536 208.231 33.3305L205.372 42.1734C205.198 42.7099 204.699 43.0734 204.135 43.0734H194.873C194.583 43.0734 194.462 43.4445 194.696 43.6157L202.196 49.0905C202.649 49.4215 202.839 50.0062 202.666 50.5404L199.803 59.394C199.714 59.6706 200.031 59.9 200.266 59.7286L207.75 54.2645C208.207 53.9312 208.827 53.9312 209.283 54.2645L216.768 59.7286C217.003 59.9 217.32 59.6706 217.23 59.394L214.367 50.5404C214.195 50.0062 214.384 49.4215 214.838 49.0905L222.337 43.6157C222.572 43.4445 222.451 43.0734 222.16 43.0734H212.899C212.335 43.0734 211.835 42.7099 211.662 42.1734L208.802 33.3305Z" stroke="#212121"/>
</g>
<g opacity="0.9">
<mask id="mask2" mask-type="alpha" maskUnits="userSpaceOnUse" x="26" y="12" width="395" height="84">
<rect x="26.4448" y="12.7542" width="394.555" height="82.9027" fill="#C4C4C4"/>
</mask>
<g mask="url(#mask2)">
<path d="M157.646 67.7948C157.904 67.4743 158.267 67.2277 158.688 67.0862C159.11 66.9446 159.572 66.9145 160.015 66.9996C160.459 67.0847 160.864 67.2813 161.18 67.5643C161.496 67.8474 161.708 68.2043 161.789 68.59C161.871 68.9756 161.818 69.3726 161.638 69.7308C161.458 70.089 161.159 70.3923 160.778 70.6023C160.397 70.8123 159.951 70.9197 159.498 70.9107C159.044 70.9018 158.603 70.777 158.23 70.5521C157.73 70.2502 157.387 69.7903 157.278 69.2734C157.169 68.7565 157.301 68.2247 157.646 67.7948ZM161.13 69.8938C161.348 69.6227 161.468 69.3012 161.474 68.97C161.479 68.6388 161.371 68.3128 161.163 68.0332C160.955 67.7536 160.656 67.533 160.303 67.3993C159.951 67.2656 159.562 67.2248 159.184 67.282C158.806 67.3392 158.458 67.4918 158.182 67.7207C157.907 67.9495 157.717 68.2443 157.636 68.5676C157.555 68.891 157.588 69.2284 157.729 69.5373C157.87 69.8461 158.114 70.1126 158.43 70.3028C158.854 70.5575 159.376 70.6575 159.882 70.5808C160.388 70.5041 160.837 70.2571 161.13 69.8938Z" fill="#CCCCCC"/>
<path d="M155.073 60.4515C154.294 60.4327 153.649 60.9626 153.633 61.6351C153.617 62.3076 154.236 62.868 155.015 62.8868C155.795 62.9057 156.439 62.3757 156.455 61.7032C156.471 61.0307 155.853 60.4703 155.073 60.4515Z" fill="#CCCCCC"/>
<path d="M151.273 54.6954C150.863 54.6855 150.525 54.9639 150.516 55.3171C150.508 55.6704 150.833 55.9648 151.242 55.9747C151.652 55.9845 151.99 55.7062 151.999 55.3529C152.007 54.9997 151.682 54.7053 151.273 54.6954Z" fill="#CCCCCC"/>
<path d="M116.166 96.4527C116.747 95.7296 117.566 95.1731 118.517 94.8538C119.469 94.5344 120.511 94.4665 121.512 94.6585C122.512 94.8506 123.427 95.294 124.139 95.9328C124.851 96.5715 125.33 97.3769 125.514 98.247C125.698 99.1172 125.58 100.013 125.173 100.821C124.767 101.63 124.091 102.314 123.232 102.788C122.372 103.262 121.367 103.504 120.343 103.484C119.32 103.464 118.324 103.182 117.482 102.675C116.354 101.993 115.582 100.956 115.335 99.7892C115.088 98.6227 115.387 97.4228 116.166 96.4527ZM124.026 101.189C124.519 100.577 124.788 99.8518 124.802 99.1045C124.815 98.3572 124.572 97.6216 124.102 96.9908C123.632 96.3599 122.957 95.8622 122.162 95.5604C121.367 95.2587 120.488 95.1665 119.636 95.2956C118.784 95.4247 117.997 95.7692 117.375 96.2856C116.754 96.8019 116.325 97.467 116.142 98.1966C115.96 98.9262 116.033 99.6876 116.352 100.385C116.671 101.082 117.222 101.683 117.935 102.112C118.891 102.687 120.069 102.912 121.211 102.739C122.353 102.566 123.365 102.009 124.026 101.189Z" fill="#CCCCCC"/>
<path d="M110.36 79.883C108.602 79.8406 107.147 81.0363 107.111 82.5538C107.074 84.0713 108.471 85.3358 110.229 85.3782C111.988 85.4207 113.442 84.2249 113.479 82.7075C113.515 81.19 112.119 79.9255 110.36 79.883Z" fill="#CCCCCC"/>
<path d="M101.785 66.8947C100.861 66.8724 100.097 67.5005 100.078 68.2976C100.059 69.0947 100.792 69.759 101.716 69.7813C102.639 69.8036 103.404 69.1755 103.423 68.3784C103.442 67.5813 102.708 66.917 101.785 66.8947Z" fill="#CCCCCC"/>
<path d="M326.951 72.4561C326.688 72.1338 326.52 71.7442 326.467 71.3367C326.415 70.9291 326.481 70.5219 326.656 70.1664C326.832 69.8109 327.109 69.5232 327.454 69.3396C327.798 69.156 328.194 69.0848 328.592 69.135C328.989 69.1852 329.37 69.3546 329.686 69.6216C330.002 69.8887 330.239 70.2414 330.368 70.6353C330.496 71.0292 330.51 71.4466 330.407 71.8345C330.305 72.2225 330.09 72.5637 329.792 72.815C329.391 73.1519 328.866 73.3034 328.333 73.2361C327.801 73.1688 327.303 72.8882 326.951 72.4561ZM327.183 72.2606C327.406 72.5333 327.698 72.7368 328.024 72.8454C328.349 72.954 328.693 72.9628 329.012 72.8707C329.331 72.7787 329.61 72.5898 329.815 72.3281C330.02 72.0664 330.14 71.7435 330.162 71.4003C330.184 71.0572 330.105 70.7091 329.936 70.4002C329.768 70.0912 329.516 69.8353 329.214 69.6648C328.912 69.4942 328.572 69.4166 328.238 69.4419C327.904 69.4672 327.591 69.5942 327.338 69.8068C327.17 69.948 327.033 70.1235 326.934 70.3232C326.835 70.5229 326.777 70.743 326.763 70.9708C326.749 71.1987 326.778 71.4298 326.85 71.6511C326.923 71.8725 327.036 72.0795 327.183 72.2606L327.183 72.2606Z" fill="#CCCCCC"/>
<path d="M335.234 75.4862C335.643 76.0729 336.419 76.2356 336.968 75.8497C337.516 75.4637 337.629 74.6753 337.22 74.0886C336.811 73.502 336.035 73.3392 335.487 73.7252C334.938 74.1111 334.825 74.8996 335.234 75.4862Z" fill="#CCCCCC"/>
<path d="M289.54 86.6964C289.142 86.6956 288.747 86.5736 288.404 86.3459C288.061 86.1182 287.786 85.7949 287.613 85.4171C287.44 85.0392 287.377 84.6237 287.432 84.2231C287.487 83.8224 287.658 83.4547 287.923 83.1663C288.188 82.8779 288.536 82.6819 288.921 82.603C289.306 82.5241 289.713 82.5658 290.089 82.723C290.464 82.8801 290.793 83.1456 291.033 83.4859C291.272 83.8261 291.412 84.2258 291.435 84.6345C291.465 85.1823 291.282 85.707 290.927 86.0936C290.571 86.4801 290.073 86.697 289.54 86.6964ZM289.328 82.882C288.992 82.8813 288.669 82.9831 288.4 83.1746C288.131 83.3662 287.928 83.6387 287.817 83.9579C287.706 84.2771 287.692 84.6286 287.777 84.9679C287.861 85.3071 288.04 85.619 288.292 85.864C288.543 86.109 288.855 86.2761 289.189 86.3443C289.522 86.4124 289.862 86.3785 290.166 86.2469C290.469 86.1152 290.722 85.8916 290.893 85.6045C291.064 85.3174 291.145 84.9796 291.126 84.6338C291.1 84.1703 290.896 83.7255 290.559 83.3971C290.222 83.0687 289.779 82.8834 289.328 82.882Z" fill="#CCCCCC"/>
<path d="M285.048 92.9403C285.457 93.527 286.233 93.6897 286.781 93.3038C287.329 92.9178 287.442 92.1294 287.033 91.5427C286.625 90.9561 285.848 90.7933 285.3 91.1793C284.752 91.5652 284.639 92.3537 285.048 92.9403Z" fill="#CCCCCC"/>
<path d="M286.758 24.7633C286.938 24.4102 287.219 24.1261 287.566 23.9469C287.912 23.7676 288.309 23.7013 288.706 23.7563C289.103 23.8114 289.482 23.9852 289.795 24.2559C290.109 24.5266 290.342 24.8821 290.466 25.2772C290.59 25.6724 290.599 26.0895 290.492 26.476C290.385 26.8624 290.166 27.2007 289.864 27.4481C289.562 27.6956 289.19 27.841 288.795 27.866C288.4 27.8911 287.999 27.7946 287.644 27.5888C287.168 27.3124 286.808 26.8597 286.641 26.33C286.475 25.8003 286.517 25.2368 286.758 24.7633ZM290.073 26.6841C290.225 26.3854 290.285 26.0417 290.244 25.6966C290.204 25.3515 290.065 25.0204 289.846 24.7452C289.626 24.47 289.336 24.263 289.012 24.1505C288.687 24.038 288.343 24.025 288.023 24.1131C287.703 24.2012 287.421 24.3865 287.213 24.6456C287.005 24.9046 286.881 25.2257 286.855 25.5684C286.83 25.911 286.904 26.2597 287.069 26.5705C287.235 26.8812 287.483 27.1401 287.784 27.3142C288.187 27.5471 288.654 27.6116 289.083 27.4935C289.512 27.3754 289.868 27.0843 290.073 26.6841Z" fill="#CCCCCC"/>
<path d="M282.662 19.2836C283.07 19.8703 283.847 20.033 284.395 19.647C284.943 19.2611 285.056 18.4727 284.647 17.886C284.238 17.2993 283.462 17.1366 282.914 17.5225C282.366 17.9085 282.253 18.6969 282.662 19.2836Z" fill="#CCCCCC"/>
<path d="M278.972 12.6464C279.187 12.9546 279.594 13.04 279.882 12.8373C280.17 12.6346 280.23 12.2204 280.015 11.9122C279.8 11.6041 279.392 11.5186 279.104 11.7213C278.816 11.924 278.757 12.3382 278.972 12.6464Z" fill="#CCCCCC"/>
</g>
</g>
<defs>
<filter id="filter0_i" x="2.47949" y="32.6228" width="220.483" height="32.6284" filterUnits="userSpaceOnUse" color-interpolation-filters="sRGB">
<feFlood flood-opacity="0" result="BackgroundImageFix"/>
<feBlend mode="normal" in="SourceGraphic" in2="BackgroundImageFix" result="shape"/>
<feColorMatrix in="SourceAlpha" type="matrix" values="0 0 0 0 0 0 0 0 0 0 0 0 0 0 0 0 0 0 127 0" result="hardAlpha"/>
<feOffset dy="4"/>
<feGaussianBlur stdDeviation="2"/>
<feComposite in2="hardAlpha" operator="arithmetic" k2="-1" k3="1"/>
<feColorMatrix type="matrix" values="0 0 0 0 0 0 0 0 0 0 0 0 0 0 0 0 0 0 0.15 0"/>
<feBlend mode="normal" in2="shape" result="effect1_innerShadow"/>
</filter>
</defs>
</svg>
