<svg width="15" height="16" viewBox="0 0 15 16" fill="none" xmlns="http://www.w3.org/2000/svg">
<path d="M4.3024 14.3225H2.32096C1.97062 14.3225 1.63463 14.1856 1.3869 13.9418C1.13917 13.698 1 13.3673 1 13.0226V8.47259C1 8.12781 1.13917 7.79715 1.3869 7.55335C1.63463 7.30956 1.97062 7.17259 2.32096 7.17259H4.3024M8.92576 5.8726V3.27262C8.92576 2.75545 8.71701 2.25946 8.34541 1.89377C7.97382 1.52808 7.46983 1.32263 6.94432 1.32263L4.3024 7.17259V14.3225H11.7526C12.0712 14.3261 12.3803 14.2162 12.6231 14.0132C12.8658 13.8101 13.0258 13.5275 13.0736 13.2176L13.985 7.36759C14.0138 7.18128 14.001 6.99104 13.9476 6.81006C13.8942 6.62908 13.8015 6.46169 13.6758 6.31948C13.5502 6.17728 13.3946 6.06366 13.2199 5.98649C13.0452 5.90933 12.8556 5.87047 12.6641 5.8726H8.92576Z" stroke="#212121" stroke-width="1.5" stroke-linecap="round" stroke-linejoin="round"/>
</svg>
